<svg width="41" height="62" viewBox="0 0 41 62" fill="none" xmlns="http://www.w3.org/2000/svg">
<path d="M0.769287 17.5H9.0681V8.5L12.0859 4L15.858 1H24.1569L27.9291 4.75L30.1924 10V17.9157L40.0001 17.5L39.2456 61H0.769287V17.5Z" fill="white"/>
<path d="M9.0681 17.5H0.769287V61H39.2456L40.0001 17.5L30.1924 17.9157M9.0681 17.5V8.5L12.0859 4L15.858 1H24.1569L27.9291 4.75L30.1924 10V17.9157M9.0681 17.5L30.1924 17.9157M9.0681 17.5V22M30.1924 17.9157V22M9.0681 22L6.80479 23.5V25L8.31367 26.5H10.577L12.0859 25L11.3314 22H9.0681ZM30.1924 22L28.6835 22.75L27.9291 24.25L28.6835 26.5L30.9468 27.25L33.2101 26.5L34.719 23.5L32.4557 22H30.1924Z" stroke="#DB0066"/>
</svg>
