<svg width="40" height="46" viewBox="0 0 40 46" fill="none" xmlns="http://www.w3.org/2000/svg">
<path d="M22 12.25L9.5 8L1 33.5L15 37.6176M22 12.25L26.5 1L27.5 14.12M22 12.25L27.5 14.12M27.5 14.12L34.5 16.5L33.5 19.5625M33.5 19.5625L26.5 41L15 37.6176M33.5 19.5625H38.5L39 45H15V37.6176M23 19.5625L18.25 25.0312L13.5 30.5M15 22L16 20.5L15.5 19.5L15 18L13.5 17.5L12 18L11 19L10.5 20L11 21.5L12 23H13.5L14.5 22.5L15 22ZM21.5 27H23L24 27.5L24.5 29V30.5L23.5 32L22 32.5L20.5 32L19.5 31V29L20.5 27.5L21.5 27Z" stroke="#DB0066"/>
</svg>
