<svg width="51" height="62" viewBox="0 0 51 62" fill="none" xmlns="http://www.w3.org/2000/svg">
<path d="M37.9174 21L39.3989 18.037V14.3333L38.6581 11.3704L37.1767 7.66667L34.2137 3.22222L30.51 1H24.5841L19.3989 2.48148L16.4359 4.7037L13.473 7.66667L11.2507 11.3704V15.8148L12.7322 21L14.9544 24.7037L17.9174 27.6667L21.6211 29.8889H29.0285L31.9915 28.4074L34.2137 26.9259L36.4359 23.963L37.9174 21Z" fill="white"/>
<path d="M49.7693 60.2593L0.880371 61L2.36185 52.8518L4.58407 47.6667L8.28778 42.4815L13.473 38.7778L19.3989 35.0741H31.9915L38.6581 38.037L43.8433 42.4815L47.547 47.6667L49.7693 53.5926V60.2593Z" fill="white"/>
<path d="M37.9174 21L39.3989 18.037V14.3333L38.6581 11.3704L37.1767 7.66667L34.2137 3.22222L30.51 1H24.5841L19.3989 2.48148L16.4359 4.7037L13.473 7.66667L11.2507 11.3704V15.8148L12.7322 21L14.9544 24.7037L17.9174 27.6667L21.6211 29.8889H29.0285L31.9915 28.4074L34.2137 26.9259L36.4359 23.963L37.9174 21Z" stroke="#DB0066"/>
<path d="M49.7693 60.2593L0.880371 61L2.36185 52.8518L4.58407 47.6667L8.28778 42.4815L13.473 38.7778L19.3989 35.0741H31.9915L38.6581 38.037L43.8433 42.4815L47.547 47.6667L49.7693 53.5926V60.2593Z" stroke="#DB0066"/>
</svg>
