<svg width="41" height="40" viewBox="0 0 41 40" fill="none" xmlns="http://www.w3.org/2000/svg">
<rect x="0.233887" width="40" height="40" rx="20" fill="white"/>
<path d="M26.4715 22.7928C26.9963 22.2681 27.0712 21.5185 26.6215 20.7689C26.2466 20.1692 25.572 19.8694 24.8224 20.0193C24.5225 20.0942 24.2227 20.2442 23.9229 20.469C21.5991 22.0432 18.4507 21.9683 16.1269 20.3941C15.977 20.3191 15.8271 20.2442 15.6771 20.1692C14.8526 19.7944 14.028 19.9443 13.5782 20.6939C13.0535 21.4435 13.1285 22.2681 13.8031 22.9428C13.953 23.0927 14.103 23.1676 14.1779 23.3176L14.2529 23.3925C15.3023 24.2171 16.5767 24.7418 18.2258 24.9667L17.2513 25.9412C16.4268 26.7658 15.5272 27.6653 14.7027 28.4899C14.4778 28.7148 14.1779 29.0896 14.1779 29.6143C14.1779 30.2889 14.5527 30.9636 15.2274 31.2634C15.4523 31.4133 15.6771 31.4133 15.902 31.4133C16.2768 31.4133 16.7266 31.2634 17.0264 30.8886C18.1509 29.7642 19.0504 28.8647 19.9499 27.9651C20.0249 27.8902 20.0249 27.8902 20.0249 27.8902C20.0249 27.8902 20.0998 27.8902 20.0998 27.9651C20.6995 28.6398 21.3742 29.2395 21.9739 29.9141C22.2737 30.214 22.5736 30.5138 22.8734 30.8137C23.2482 31.1885 23.5481 31.3384 23.9978 31.3384C24.6725 31.4134 25.4221 30.9636 25.7219 30.2889C26.0218 29.6892 25.8718 28.9396 25.3471 28.4899C24.5975 27.7403 23.8479 26.9157 23.0233 26.1661L21.749 24.8917C22.4236 24.8168 23.1732 24.6669 23.8479 24.367C24.9723 23.9922 25.7969 23.4675 26.4715 22.7928Z" fill="#DB0066"/>
<path d="M20.0249 20.6939C23.2482 20.6939 25.8718 18.1452 25.8718 14.9219C25.8718 13.3477 25.2722 11.8485 24.1477 10.7241C23.0233 9.59969 21.5991 9 20.0998 9C16.8765 9 14.3278 11.6236 14.2529 14.772C14.2529 16.3462 14.8526 17.7704 15.977 18.8948C17.0264 20.0942 18.4507 20.6939 20.0249 20.6939ZM18.3757 13.1978C18.8255 12.7481 19.4252 12.5232 20.0249 12.5232C21.3742 12.5232 22.3487 13.5726 22.3487 14.847C22.3487 16.1963 21.2992 17.1707 20.0249 17.1707C18.6756 17.1707 17.7011 16.1213 17.7011 14.847C17.7011 14.2473 17.926 13.6476 18.3757 13.1978Z" fill="#DB0066"/>
<path d="M26.4715 22.7928C26.9963 22.2681 27.0712 21.5185 26.6215 20.7689C26.2466 20.1692 25.572 19.8694 24.8224 20.0193C24.5225 20.0942 24.2227 20.2442 23.9229 20.469C21.5991 22.0432 18.4507 21.9683 16.1269 20.3941C15.977 20.3191 15.8271 20.2442 15.6771 20.1692C14.8526 19.7944 14.028 19.9443 13.5782 20.6939C13.0535 21.4435 13.1285 22.2681 13.8031 22.9428C13.953 23.0927 14.103 23.1676 14.1779 23.3176L14.2529 23.3925C15.3023 24.2171 16.5767 24.7418 18.2258 24.9667L17.2513 25.9412C16.4268 26.7658 15.5272 27.6653 14.7027 28.4899C14.4778 28.7148 14.1779 29.0896 14.1779 29.6143C14.1779 30.2889 14.5527 30.9636 15.2274 31.2634C15.4523 31.4133 15.6771 31.4133 15.902 31.4133C16.2768 31.4133 16.7266 31.2634 17.0264 30.8886C18.1509 29.7642 19.0504 28.8647 19.9499 27.9651C20.0249 27.8902 20.0249 27.8902 20.0249 27.8902C20.0249 27.8902 20.0998 27.8902 20.0998 27.9651C20.6995 28.6398 21.3742 29.2395 21.9739 29.9141C22.2737 30.214 22.5736 30.5138 22.8734 30.8137C23.2482 31.1885 23.5481 31.3384 23.9978 31.3384C24.6725 31.4134 25.4221 30.9636 25.7219 30.2889C26.0218 29.6892 25.8718 28.9396 25.3471 28.4899C24.5975 27.7403 23.8479 26.9157 23.0233 26.1661L21.749 24.8917C22.4236 24.8168 23.1732 24.6669 23.8479 24.367C24.9723 23.9922 25.7969 23.4675 26.4715 22.7928Z" fill="#DB0066"/>
</svg>
