<svg width="41" height="40" viewBox="0 0 41 40" fill="none" xmlns="http://www.w3.org/2000/svg">
<rect x="0.233887" width="40" height="40" rx="20" fill="white"/>
<path d="M21.2164 27C13.6998 27 9.41253 21.7447 9.23389 13H12.999C13.1227 19.4184 15.8985 22.1371 18.0971 22.6977V13H21.6424V18.5355C23.8135 18.2973 26.0946 15.7748 26.8641 13H30.4094C30.1194 14.4391 29.5414 15.8017 28.7115 17.0025C27.8816 18.2033 26.8176 19.2166 25.5862 19.979C26.9608 20.6756 28.1749 21.6615 29.1484 22.8717C30.1219 24.082 30.8327 25.489 31.2339 27H27.3313C26.9712 25.6876 26.2393 24.5128 25.2273 23.6228C24.2153 22.7328 22.9682 22.1673 21.6424 21.997V27H21.2164Z" fill="#DB0066"/>
</svg>
